<svg width="506" height="200" viewBox="0 0 506 200" fill="none" xmlns="http://www.w3.org/2000/svg">
<g clip-path="url(#clip0_360_14963)">
<path d="M457.684 40.6932H48.3162L16.4651 120.347L48.7858 200H457.214L489.535 120.347L457.684 40.6932Z" fill="#FFD62E"/>
<path d="M85.9202 111.452C82.5098 111.452 79.3566 110.86 76.4717 109.68C73.5812 108.5 71.11 106.857 69.0526 104.76C66.9952 102.658 65.385 100.154 64.2277 97.2467C63.0648 94.3396 62.489 91.1754 62.489 87.7652V87.4353C62.489 84.0251 63.0704 80.8721 64.2277 77.9874C65.385 75.0971 67.0064 72.5982 69.0862 70.4738C71.166 68.355 73.6259 66.7002 76.4717 65.5206C79.3174 64.341 82.4203 63.7484 85.7916 63.7484C89.7723 63.7484 93.3616 64.6038 96.554 66.3089C99.7464 68.014 102.57 70.485 105.019 73.7275L96.4869 80.3578C95.0836 78.3005 93.6076 76.7799 92.059 75.7959C90.5047 74.812 88.6765 74.32 86.5799 74.32H86.5128C84.7629 74.32 83.1639 74.6387 81.7215 75.2704C80.279 75.9077 79.0435 76.8022 78.0147 77.9595C76.986 79.1223 76.1977 80.4975 75.6498 82.0964C75.1019 83.6953 74.828 85.4787 74.828 87.4465V87.8379C74.828 89.7219 75.1019 91.4605 75.6498 93.0538C76.1977 94.6527 76.9748 96.0279 77.9812 97.1908C78.9876 98.348 80.2008 99.2481 81.6209 99.8798C83.0409 100.517 84.6064 100.83 86.3116 100.83H86.3787C88.52 100.83 90.46 100.327 92.1876 99.3207C93.9151 98.3145 95.4135 96.8497 96.6826 94.921L105.086 101.551C102.983 104.699 100.294 107.142 97.0125 108.869C93.7306 110.597 90.0574 111.463 85.9873 111.463H85.9202V111.452Z" fill="#1E1E1E"/>
<path d="M110.66 64.5926H150.036V110.53H138.027V74.8288H122.54V110.53H110.66V64.5926Z" fill="#1E1E1E"/>
<path d="M158.898 64.5926H170.839V110.53H158.898V64.5926Z" fill="#1E1E1E"/>
<path d="M181.211 111.452C180.204 111.452 179.243 111.374 178.32 111.223C177.403 111.072 176.548 110.798 175.76 110.401V100.556C176.895 100.953 177.884 101.149 178.712 101.149C179.846 101.149 180.758 100.785 181.434 100.064C182.111 99.3431 182.636 98.3033 183.011 96.9448C183.38 95.5863 183.637 93.9259 183.766 91.9581C183.894 89.9902 183.984 87.7596 184.028 85.2662L184.621 64.5926H217.238V110.53H205.358V74.8288H195.775L195.579 84.3438C195.445 88.587 195.216 92.3829 194.891 95.7317C194.562 99.0804 193.907 101.915 192.924 104.229C191.94 106.549 190.525 108.333 188.691 109.579C186.852 110.826 184.358 111.452 181.211 111.452Z" fill="#1E1E1E"/>
<path d="M226.301 64.5926H238.181V79.2956H245.075C247.569 79.2956 249.833 79.659 251.868 80.3802C253.903 81.1013 255.642 82.13 257.084 83.4661C258.527 84.8022 259.645 86.3955 260.433 88.2572C261.221 90.1188 261.613 92.2041 261.613 94.5241V95.0496C261.613 97.3249 261.221 99.4158 260.433 101.317C259.645 103.217 258.527 104.861 257.084 106.236C255.642 107.617 253.914 108.674 251.901 109.417C249.889 110.161 247.636 110.535 245.142 110.535H226.306V64.5982L226.301 64.5926ZM242.772 100.69C245.002 100.69 246.741 100.176 247.988 99.1474C249.235 98.1188 249.861 96.5982 249.861 94.5856V94.2558C249.861 90.3648 247.473 88.4137 242.704 88.4137H237.785V100.685H242.772V100.69Z" fill="#1E1E1E"/>
<path d="M267.846 64.5926H279.727V82.1803H295.214V64.5926H307.156V110.53H295.214V92.4165H279.727V110.53H267.846V64.5926Z" fill="#1E1E1E"/>
<path d="M314.116 87.3012C314.116 83.9301 314.687 80.805 315.822 77.9147C316.957 75.0244 318.556 72.5255 320.613 70.4011C322.67 68.2823 325.108 66.6163 327.931 65.4144C330.755 64.2124 333.869 63.6086 337.285 63.6086H338.073C341.439 63.6086 344.547 64.2124 347.393 65.4144C350.239 66.6163 352.688 68.2711 354.745 70.3676C356.803 72.4696 358.396 74.9518 359.537 77.8141C360.671 80.682 361.242 83.7959 361.242 87.167V87.9553C361.242 91.2816 360.671 94.3843 359.537 97.2746C358.396 100.165 356.803 102.658 354.745 104.755C352.688 106.857 350.239 108.506 347.393 109.708C344.547 110.91 341.445 111.514 338.073 111.514H337.285C333.958 111.514 330.872 110.899 328.032 109.674C325.186 108.45 322.738 106.767 320.68 104.621C318.623 102.479 317.013 99.9748 315.855 97.1069C314.692 94.239 314.116 91.1474 314.116 87.8211V87.2956V87.3012ZM326.45 87.8267C326.45 89.8393 326.735 91.6785 327.305 93.3389C327.876 94.9993 328.653 96.4249 329.637 97.6044C330.621 98.784 331.778 99.6953 333.114 100.327C334.45 100.964 335.859 101.277 337.346 101.277H338.068C339.6 101.277 341.02 100.959 342.333 100.327C343.647 99.6953 344.782 98.784 345.744 97.6044C346.706 96.4249 347.471 95.0049 348.042 93.3389C348.612 91.6785 348.897 89.8393 348.897 87.8267V87.3012C348.897 85.2439 348.612 83.3934 348.042 81.7554C347.471 80.1174 346.694 78.703 345.71 77.5234C344.726 76.3438 343.575 75.4325 342.266 74.8008C340.953 74.1691 339.532 73.8504 338.001 73.8504H337.279C335.792 73.8504 334.389 74.1691 333.081 74.8008C331.767 75.4381 330.621 76.3438 329.637 77.5234C328.653 78.703 327.876 80.1174 327.305 81.7554C326.735 83.3934 326.45 85.2439 326.45 87.3012V87.8267Z" fill="#1E1E1E"/>
<path d="M374.889 74.8288H362.947V64.5926H398.779V74.8288H386.898V110.53H374.889V74.8288Z" fill="#1E1E1E"/>
<path d="M411.05 64.5926H426.012L441.498 110.53H428.896L426.403 102.127H410.654L408.093 110.53H395.424L411.045 64.5926H411.05ZM423.848 92.8805L418.861 77.1936H418.073L413.153 92.8805H423.854H423.848Z" fill="#1E1E1E"/>
<path d="M80.6704 177.448C77.26 177.448 74.1067 176.855 71.2219 175.676C68.3314 174.496 65.8602 172.853 63.8028 170.756C61.7454 168.654 60.1352 166.15 58.9779 163.242C57.815 160.335 57.2391 157.171 57.2391 153.761V153.431C57.2391 150.021 57.8206 146.868 58.9779 143.983C60.1352 141.093 61.7565 138.594 63.8363 136.47C65.9161 134.351 68.3761 132.696 71.2219 131.516C74.0676 130.337 77.1705 129.744 80.5418 129.744C84.5225 129.744 88.1118 130.6 91.3042 132.305C94.4966 134.01 97.3199 136.481 99.7687 139.723L91.2371 146.354C89.8338 144.296 88.3578 142.776 86.8092 141.792C85.2549 140.808 83.4267 140.316 81.3301 140.316H81.263C79.5131 140.316 77.9141 140.634 76.4717 141.266C75.0292 141.904 73.7936 142.798 72.7649 143.955C71.7362 145.118 70.9479 146.493 70.4 148.092C69.8521 149.691 69.5781 151.474 69.5781 153.442V153.834C69.5781 155.718 69.8521 157.456 70.4 159.05C70.9479 160.648 71.725 162.024 72.7314 163.187C73.7377 164.344 74.951 165.244 76.371 165.876C77.7911 166.513 79.3565 166.826 81.0618 166.826H81.1288C83.2701 166.826 85.2102 166.323 86.9377 165.317C88.6653 164.31 90.1637 162.846 91.4328 160.917L99.8358 167.547C97.7337 170.695 95.0445 173.138 91.7626 174.865C88.4808 176.593 84.8076 177.459 80.7375 177.459H80.6704V177.448Z" fill="#1E1E1E"/>
<path d="M114.338 140.83H102.396V130.594H138.228V140.83H126.348V176.531H114.338V140.83Z" fill="#1E1E1E"/>
<path d="M144.132 130.588H173.926V140.825H156.007V148.83H172.612V158.412H156.007V166.289H174.58V176.525H144.127V130.588H144.132Z" fill="#1E1E1E"/>
<path d="M182.525 130.588H200.767C203.395 130.588 205.788 130.974 207.952 131.734C210.115 132.5 211.977 133.574 213.531 134.949C215.086 136.33 216.288 137.979 217.143 139.902C217.998 141.825 218.423 143.95 218.423 146.27V146.795C218.423 149.199 217.998 151.379 217.143 153.325C216.288 155.27 215.074 156.948 213.503 158.345C211.927 159.748 210.059 160.827 207.89 161.593C205.727 162.359 203.328 162.739 200.706 162.739H194.405V176.52H182.525V130.583V130.588ZM199.526 153.56C201.757 153.56 203.485 152.934 204.709 151.687C205.933 150.44 206.548 148.897 206.548 147.058V146.532C206.548 144.783 205.989 143.374 204.877 142.3C203.759 141.227 202.109 140.69 199.923 140.69H194.014V153.554H199.526V153.56Z" fill="#1E1E1E"/>
<path d="M224.663 130.588H236.543V148.176H252.03V130.588H263.972V176.525H252.03V158.412H236.543V176.525H224.663V130.588Z" fill="#1E1E1E"/>
<path d="M273.029 130.588H302.823V140.825H284.904V148.83H301.509V158.412H284.904V166.289H303.477V176.525H273.024V130.588H273.029Z" fill="#1E1E1E"/>
<path d="M311.422 130.588H323.302V148.176H338.789V130.588H350.731V176.525H338.789V158.412H323.302V176.525H311.422V130.588Z" fill="#1E1E1E"/>
<path d="M359.794 130.588H371.736V149.294H372.39L385.909 130.588H399.164L382.364 151.72L400.02 176.525H386.104L372.323 155.528H371.73V176.525H359.788V130.588H359.794Z" fill="#1E1E1E"/>
<path d="M416.3 130.588H431.262L446.748 176.525H434.146L431.653 168.123H415.903L413.343 176.525H400.674L416.295 130.588H416.3ZM429.098 158.876L424.111 143.189H423.322L418.403 158.876H429.103H429.098Z" fill="#1E1E1E"/>
<path d="M474.149 40.6932H463.929L495.78 120.347L463.459 200H473.674L506 120.347L474.149 40.6932Z" fill="#FFD62E"/>
<path d="M31.8511 40.6932H42.0712L10.2201 120.347L42.5408 200H32.3207L0 120.347L31.8511 40.6932Z" fill="#FFD62E"/>
<path d="M53.1802 7.26764H70.769V11.4829H57.938V17.0063H63.7525C65.0607 17.0063 66.2516 17.1908 67.3306 17.5486C68.4096 17.9119 69.3265 18.4263 70.0925 19.0915C70.8584 19.7568 71.4455 20.5618 71.8536 21.5066C72.2673 22.4514 72.4742 23.5024 72.4742 24.6653V24.9224C72.4742 26.0852 72.2617 27.1474 71.8368 28.1034C71.4119 29.0594 70.8137 29.8756 70.0366 30.5576C69.2594 31.2341 68.3314 31.7652 67.2411 32.1398C66.1509 32.5143 64.9377 32.7044 63.6071 32.7044H53.1746V7.26764H53.1802ZM63.3946 28.601C64.7029 28.601 65.7428 28.2655 66.5199 27.6003C67.2971 26.935 67.6828 26.007 67.6828 24.8218V24.6038C67.6828 23.4409 67.2971 22.5297 66.5199 21.8588C65.7428 21.1936 64.7029 20.8581 63.3946 20.8581H57.8709V28.601H63.3946Z" fill="white"/>
<path d="M78.4732 33.1013C77.5787 33.1013 76.768 32.9559 76.0356 32.6652V28.5954C76.5947 28.8134 77.137 28.9196 77.6737 28.9196C78.4005 28.9196 78.9764 28.7072 79.4013 28.2823C79.8262 27.8574 80.1505 27.1642 80.3797 26.1914C80.6089 25.2243 80.7654 23.9552 80.8549 22.3955C80.9388 20.8357 81.0058 18.9126 81.0562 16.6373L81.3133 7.26202H98.2089V32.6988H93.4455V11.4828H85.814L85.7078 16.7156C85.6351 19.6226 85.5065 22.1104 85.3276 24.1845C85.1487 26.2585 84.802 27.9525 84.2933 29.2718C83.7845 30.5912 83.0689 31.5583 82.1464 32.1789C81.2239 32.7938 80.0051 33.1069 78.4788 33.1069L78.4732 33.1013Z" fill="white"/>
<path d="M111.728 7.26764H117.978L126.918 32.7044H121.83L119.868 26.7114H109.838L107.875 32.7044H102.754L111.728 7.26764ZM118.632 22.7813L114.998 12.0252H114.707L111.04 22.7813H118.632Z" fill="white"/>
<path d="M131.497 7.26764H146.177V11.4829H136.254V32.7044H131.497V7.26764Z" fill="white"/>
<path d="M149.304 19.8742C149.304 18.007 149.611 16.2795 150.232 14.6807C150.852 13.0818 151.713 11.7009 152.831 10.5381C153.944 9.37528 155.275 8.46403 156.812 7.80994C158.35 7.15585 160.027 6.8316 161.844 6.8316H162.101C163.918 6.8316 165.595 7.15585 167.133 7.80994C168.67 8.46403 169.995 9.36969 171.114 10.5381C172.226 11.7009 173.093 13.0762 173.713 14.6639C174.334 16.2516 174.641 17.9791 174.641 19.8407V20.1314C174.641 21.9986 174.334 23.7205 173.713 25.3082C173.093 26.8959 172.226 28.2712 171.114 29.434C170.001 30.5968 168.67 31.5081 167.133 32.1621C165.595 32.8162 163.918 33.1405 162.101 33.1405H161.844C160.027 33.1405 158.35 32.805 156.812 32.1398C155.275 31.4745 153.95 30.5577 152.848 29.3948C151.747 28.232 150.88 26.8512 150.249 25.2523C149.617 23.6534 149.304 21.9315 149.304 20.0923V19.8742ZM154.246 20.0979C154.246 21.406 154.436 22.5968 154.811 23.6758C155.185 24.7547 155.711 25.6772 156.393 26.4375C157.069 27.2034 157.874 27.796 158.808 28.2208C159.742 28.6457 160.765 28.8582 161.877 28.8582H162.135C163.225 28.8582 164.231 28.6457 165.148 28.2208C166.071 27.796 166.87 27.2034 167.547 26.4375C168.223 25.6772 168.749 24.7547 169.129 23.6758C169.503 22.5968 169.693 21.406 169.693 20.0979V19.8798C169.693 18.5716 169.503 17.3809 169.129 16.3019C168.754 15.2229 168.234 14.3005 167.569 13.5234C166.904 12.7463 166.104 12.1482 165.17 11.7233C164.237 11.2984 163.214 11.086 162.101 11.086H161.844C160.754 11.086 159.742 11.2984 158.808 11.7233C157.874 12.1482 157.069 12.7463 156.393 13.5234C155.716 14.3005 155.185 15.2229 154.811 16.3019C154.436 17.3809 154.246 18.5716 154.246 19.8798V20.0979Z" fill="white"/>
<path d="M177.901 28.6345H179.83C180.629 27.617 181.199 25.5765 181.535 22.5129C181.876 19.4493 182.044 15.2509 182.044 9.92312V7.26764H199.342V28.6345H202.21V37.6129H197.67V32.7044H182.441V37.6129H177.901V28.6345ZM186.623 11.7009C186.572 15.9161 186.36 19.4102 185.985 22.1831C185.611 24.956 185.068 27.1083 184.369 28.6345H194.651V11.304H186.623V11.7009Z" fill="white"/>
<path d="M207.7 7.26764H212.463V32.7044H207.7V7.26764Z" fill="white"/>
<path d="M220.095 7.26764H224.78V25.3249H225.071L235.576 7.26764H240.882V32.7044H236.157V13.7694H235.867L224.965 32.7044H220.095V7.26764ZM228.051 0C228.051 0.67645 228.28 1.21873 228.738 1.61565C229.197 2.01258 229.79 2.21384 230.522 2.21384C231.254 2.21384 231.836 2.00699 232.283 1.59888C232.73 1.18519 232.954 0.654088 232.954 0H236.7C236.7 1.57652 236.135 2.83997 235.011 3.79595C233.882 4.75192 232.378 5.2327 230.488 5.2327C228.599 5.2327 227.095 4.75192 225.982 3.79595C224.87 2.83997 224.31 1.57093 224.31 0H228.056L228.051 0Z" fill="white"/>
<path d="M248.586 7.26764H253.344V17.6268H264.028V7.26764H268.786V32.7044H264.028V21.8421H253.344V32.7044H248.586V7.26764Z" fill="white"/>
<path d="M276.456 7.26764H281.142V25.3249H281.432L291.937 7.26764H297.243V32.7044H292.519V13.7694H292.228L281.326 32.7044H276.456V7.26764Z" fill="white"/>
<path d="M304.947 7.26764H309.633V25.3249H309.923L320.428 7.26764H325.734V32.7044H321.01V13.7694H320.719L309.817 32.7044H304.947V7.26764ZM312.909 0C312.909 0.67645 313.138 1.21873 313.596 1.61565C314.055 2.01258 314.653 2.21384 315.38 2.21384C316.107 2.21384 316.694 2.00699 317.141 1.59888C317.588 1.18519 317.812 0.654088 317.812 0H321.558C321.558 1.57652 320.993 2.83997 319.869 3.79595C318.746 4.75192 317.236 5.2327 315.346 5.2327C313.457 5.2327 311.953 4.75192 310.84 3.79595C309.728 2.83997 309.168 1.57093 309.168 0H312.914L312.909 0Z" fill="white"/>
<path d="M358.407 30.1607V32.7044H353.828V30.1607H353.286C351.81 30.1607 350.44 29.9036 349.177 29.3948C347.919 28.8861 346.828 28.1649 345.906 27.2313C344.983 26.2977 344.257 25.1964 343.726 23.9217C343.194 22.6471 342.926 21.2495 342.926 19.7233V19.4326C342.926 17.9064 343.194 16.5087 343.726 15.2341C344.257 13.9595 344.983 12.8637 345.906 11.9469C346.828 11.0245 347.919 10.3145 349.177 9.80574C350.435 9.297 351.804 9.03984 353.286 9.03984H353.828V7.07758H358.407V9.03984H358.949C360.425 9.03984 361.795 9.297 363.059 9.80574C364.317 10.3145 365.412 11.0301 366.346 11.9469C367.28 12.8693 368.007 13.9651 368.527 15.2341C369.046 16.5087 369.309 17.9064 369.309 19.4326V19.7233C369.309 21.2495 369.046 22.6471 368.527 23.9217C368.007 25.1908 367.28 26.2977 366.346 27.2313C365.412 28.1649 364.317 28.8861 363.059 29.3948C361.801 29.9036 360.431 30.1607 358.949 30.1607H358.407ZM353.974 26.2753V12.9364H353.353C352.531 12.9364 351.765 13.0929 351.066 13.4116C350.362 13.7247 349.758 14.1719 349.249 14.7533C348.741 15.3347 348.344 16.028 348.07 16.8274C347.79 17.6268 347.65 18.499 347.65 19.4438V19.7345C347.65 20.7016 347.79 21.5905 348.07 22.3899C348.349 23.1894 348.741 23.8826 349.249 24.464C349.758 25.0454 350.362 25.4927 351.066 25.8113C351.771 26.1244 352.531 26.2809 353.353 26.2809H353.974V26.2753ZM358.877 26.2753C359.699 26.2753 360.465 26.1188 361.163 25.8057C361.868 25.4927 362.472 25.0398 362.98 24.4584C363.489 23.877 363.886 23.1838 364.16 22.3844C364.434 21.5849 364.579 20.7016 364.579 19.7289V19.4382C364.579 18.471 364.44 17.5821 364.16 16.7827C363.881 15.9832 363.489 15.3012 362.98 14.731C362.472 14.1607 361.873 13.7191 361.18 13.406C360.487 13.0929 359.721 12.9308 358.871 12.9308H358.251V26.2697H358.871L358.877 26.2753Z" fill="white"/>
<path d="M373.665 19.8742C373.665 18.007 373.972 16.2795 374.593 14.6807C375.213 13.0818 376.074 11.7009 377.192 10.5381C378.305 9.37528 379.636 8.46403 381.173 7.80994C382.711 7.15585 384.388 6.8316 386.205 6.8316H386.462C388.279 6.8316 389.956 7.15585 391.494 7.80994C393.031 8.46403 394.356 9.36969 395.474 10.5381C396.587 11.7009 397.454 13.0762 398.074 14.6639C398.695 16.2516 399.002 17.9791 399.002 19.8407V20.1314C399.002 21.9986 398.695 23.7205 398.074 25.3082C397.454 26.8959 396.587 28.2712 395.474 29.434C394.362 30.5968 393.031 31.5081 391.494 32.1621C389.956 32.8162 388.279 33.1405 386.462 33.1405H386.205C384.388 33.1405 382.711 32.805 381.173 32.1398C379.636 31.4745 378.311 30.5577 377.209 29.3948C376.108 28.232 375.241 26.8512 374.609 25.2523C373.978 23.6534 373.665 21.9315 373.665 20.0923V19.8742ZM378.607 20.0979C378.607 21.406 378.797 22.5968 379.172 23.6758C379.546 24.7547 380.072 25.6772 380.754 26.4375C381.43 27.2034 382.235 27.796 383.169 28.2208C384.103 28.6457 385.126 28.8582 386.238 28.8582H386.496C387.586 28.8582 388.592 28.6457 389.509 28.2208C390.432 27.796 391.231 27.2034 391.908 26.4375C392.584 25.6772 393.11 24.7547 393.49 23.6758C393.864 22.5968 394.054 21.406 394.054 20.0979V19.8798C394.054 18.5716 393.864 17.3809 393.49 16.3019C393.115 15.2229 392.595 14.3005 391.93 13.5234C391.265 12.7463 390.465 12.1482 389.531 11.7233C388.598 11.2984 387.575 11.086 386.462 11.086H386.205C385.115 11.086 384.103 11.2984 383.169 11.7233C382.235 12.1482 381.43 12.7463 380.754 13.5234C380.077 14.3005 379.546 15.2229 379.172 16.3019C378.797 17.3809 378.607 18.5716 378.607 19.8798V20.0979Z" fill="white"/>
<path d="M405.102 7.26764H409.865V17.6268H420.549V7.26764H425.313V32.7044H420.549V21.8421H409.865V32.7044H405.102V7.26764Z" fill="white"/>
<path d="M430.646 28.6345H432.575C433.375 27.617 433.945 25.5765 434.281 22.5129C434.622 19.4493 434.789 15.2509 434.789 9.92312V7.26764H452.087V28.6345H454.955V37.6129H450.416V32.7044H435.192V37.6129H430.652V28.6345H430.646ZM439.368 11.7009C439.318 15.9161 439.105 19.4102 438.731 22.1831C438.356 24.956 437.814 27.1083 437.115 28.6345H447.397V11.304H439.363V11.7009H439.368Z" fill="white"/>
</g>
<defs>
<clipPath id="clip0_360_14963">
<rect width="506" height="200" fill="white"/>
</clipPath>
</defs>
</svg>
